<svg width="119" height="66" viewBox="0 0 119 66" fill="none" xmlns="http://www.w3.org/2000/svg">
<path d="M88.076 13.9752C93.5714 9.31483 99.0667 4.66038 104.562 0C106.7 0.177651 107.582 0.923785 108.003 1.49819C109.465 3.51157 107.221 6.17041 108.79 8.66936C109.311 9.49248 109.572 9.23193 111.727 10.9196C114.333 12.9567 115.636 13.9811 116.062 15.2424C117.134 18.4165 112.858 20.6193 113.824 23.6749C114.623 26.1857 117.951 26.1147 118.579 28.6551C119.023 30.4434 117.815 32.2673 116.873 33.4043C108.98 33.6471 101.092 33.8839 93.1983 34.1267C91.4988 27.4056 89.7874 20.6904 88.076 13.9752Z" fill="#E6B22B"/>
<path d="M91.7534 28.3945C99.1851 26.9911 106.617 25.5936 114.049 24.1901C114.629 24.9599 115.203 25.4455 115.618 25.7416C116.548 26.4226 117.14 26.5055 117.797 27.2576C117.797 27.2576 118.342 27.8793 118.591 28.6492C119.064 30.1059 118.336 31.9357 116.885 33.3984C108.991 33.6412 101.104 33.878 93.2102 34.1208C92.7246 32.214 92.239 30.3072 91.7534 28.3945Z" fill="#DFAA22"/>
<path d="M27.6807 46.8229C26.0641 45.0523 24.9153 43.3705 24.1691 42.1506C24.6606 44.0693 25.3772 45.8813 26.2832 47.5512C27.0589 48.9902 27.9709 50.3285 29.0072 51.5602C29.475 52.1228 29.9724 52.6616 30.4876 53.1768C25.0219 57.2273 19.5561 61.2836 14.0904 65.34C12.5685 65.0084 10.3775 64.2919 9.57214 62.5213C9.31751 61.9587 9.27014 61.4258 9.32343 60.8987C9.32343 60.8632 9.32343 60.8454 9.32343 60.8454C9.32343 60.8099 9.32935 60.7744 9.33528 60.7388C9.38857 60.3066 9.51885 59.8802 9.66689 59.4538C9.69058 59.3887 9.72019 59.3235 9.74387 59.2525C9.85638 58.9268 9.98666 58.6011 10.0992 58.2754C10.1169 58.2399 10.1229 58.2044 10.1347 58.1688C10.3893 57.4227 10.567 56.6588 10.4189 55.8534C10.3834 55.6699 10.3301 55.4804 10.2591 55.2909C9.06288 52.1228 4.07681 53.0998 2.89247 49.7719C2.41873 48.4454 2.83325 46.7518 3.65637 43.3587C4.33736 40.5518 4.72227 40.5991 4.60976 39.5747C4.27815 36.4836 0.677755 35.7493 0.577086 33.126C0.547477 32.3798 0.790267 31.1837 2.44242 29.644C9.67281 29.8927 16.9032 30.1414 24.1336 30.3901C24.5007 30.402 24.862 30.4138 25.2291 30.4257C27.2425 34.9558 29.2618 39.4799 31.2811 44.01C31.3877 44.2588 31.5002 44.5134 31.6127 44.7621C32.4595 46.663 33.3063 48.5579 34.1531 50.4588C33.7623 50.7489 33.3714 51.0391 32.9806 51.3293C31.8022 50.5654 30.7481 49.7482 29.8066 48.9073C29.019 48.2144 28.3143 47.5098 27.6807 46.8229Z" fill="#E6B22B"/>
<path d="M29.0072 51.5602C29.475 52.1228 29.9724 52.6616 30.4876 53.1768C25.0219 57.2273 19.5562 61.2836 14.0904 65.34C11.935 65.0735 10.1348 64.0372 9.5722 62.5213C9.31756 61.8344 9.31756 61.1001 9.32348 60.8987C9.32348 60.8632 9.32348 60.8454 9.32348 60.8454C9.32348 60.8099 9.32941 60.7744 9.33533 60.7388C9.37086 60.2237 9.50114 59.8565 9.66694 59.4538C9.69063 59.3887 9.72024 59.3236 9.74392 59.2525C9.86236 58.9683 9.98671 58.6662 10.0992 58.2754C10.117 58.2399 10.1229 58.2044 10.1348 58.1688C10.2769 57.6536 10.4368 56.8779 10.4131 55.8594C10.4131 55.8594 10.419 55.8594 10.419 55.8534C15.7071 53.0939 20.9951 50.3226 26.2832 47.5512C27.059 48.9902 27.9709 50.3285 29.0072 51.5602Z" fill="#DFAA22"/>
<path d="M34.1531 50.4588C33.7622 50.7489 33.3714 51.0391 32.9806 51.3293C31.8022 50.5654 30.7481 49.7482 29.8066 48.9073C29.019 48.2144 28.3143 47.5098 27.6807 46.8229C28.7703 46.2484 29.8598 45.68 30.9494 45.1115C31.1685 44.993 31.3936 44.8805 31.6127 44.7621C32.4595 46.663 33.3063 48.5579 34.1531 50.4588Z" fill="#DFAA22"/>
<path d="M29.8066 48.9073L29.0072 51.5602C27.9709 50.3285 27.0589 48.9902 26.2832 47.5512C26.751 47.3084 27.2188 47.0657 27.6807 46.8229C28.3143 47.5098 29.019 48.2145 29.8066 48.9073Z" fill="#63438A"/>
<path d="M27.6808 46.8229C27.2189 47.0656 26.751 47.3084 26.2832 47.5512C25.3772 45.8813 24.6607 44.0693 24.1692 42.1506C24.9153 43.3705 26.0641 45.0523 27.6808 46.8229Z" fill="#63438A"/>
<path d="M40.59 13.1106L31.2811 44.0101L30.9495 45.1115L29.8066 48.9073C29.019 48.2145 28.3144 47.5098 27.6807 46.8229C26.0641 45.0523 24.9153 43.3705 24.1692 42.1506C23.6599 40.161 23.4171 38.1653 23.4171 36.1993C23.4171 34.2215 23.6658 32.2733 24.1336 30.3902C26.1411 22.3663 32.2168 15.5978 40.59 13.1106Z" fill="#724F9D"/>
<path d="M93.2102 39.4444C90.5928 45.6267 85.4291 50.666 78.702 52.9104L80.0344 48.475C83.5341 46.6748 88.2419 43.8383 93.2102 39.4444Z" fill="#63438A"/>
<path d="M95.1347 30.0526C95.1347 31.4146 95.0163 32.7588 94.7854 34.0734C94.4715 35.9269 93.9386 37.7331 93.2102 39.4444C88.2419 43.8383 83.5341 46.6748 80.0344 48.475L89.1479 18.1915V18.1855L90.0243 15.2898C92.0199 17.8243 93.53 20.797 94.3827 24.0954C94.6966 25.3212 94.9097 26.5529 95.0222 27.7787C95.0992 28.5367 95.1347 29.2946 95.1347 30.0526Z" fill="#724F9D"/>
<path d="M44.6167 55.2672L43.2429 59.8269C38.4108 58.9564 33.9458 56.6114 30.4875 53.1768C31.3166 52.561 32.1515 51.9451 32.9806 51.3293C33.9044 51.9273 34.8992 52.4958 35.971 53.0051C38.9793 54.4322 41.7151 55.0185 44.6167 55.2672Z" fill="#DFAA22"/>
<path d="M32.9805 51.3293C32.1515 51.9451 31.3165 52.561 30.4875 53.1768C29.9723 52.6616 29.4749 52.1228 29.0071 51.5602L29.8065 48.9073C30.7481 49.7482 31.8021 50.5654 32.9805 51.3293Z" fill="#DFAA22"/>
<path d="M58.7223 8.42064L44.6168 55.2672C41.7152 55.0185 38.9793 54.4322 35.9711 53.0051C34.8993 52.4958 33.9045 51.9273 32.9807 51.3293C31.8023 50.5654 30.7482 49.7482 29.8066 48.9073L30.9495 45.1115L31.2811 44.01L40.59 13.1106C40.8861 13.0159 41.1822 12.933 41.4842 12.856L58.7223 8.42064Z" fill="#F2BB2E"/>
<path d="M61.4284 54.6158L60.5165 57.6536L53.4697 59.4657C50.0292 60.348 46.565 60.4368 43.2666 59.8328C43.2607 59.8328 43.2488 59.8328 43.2429 59.8269L44.6168 55.2672C44.6227 55.2731 44.6345 55.2731 44.6404 55.2731C46.4702 55.433 48.3711 55.4567 50.4437 55.4804C54.3935 55.5218 58.0768 55.1725 61.4284 54.6158Z" fill="#63438A"/>
<path d="M75.913 6.53162L61.4344 54.6158H61.4285C58.0768 55.1724 54.3935 55.5218 50.4438 55.4804C48.3712 55.4567 46.4703 55.433 44.6405 55.2731C44.6346 55.2731 44.6227 55.2731 44.6168 55.2672L58.7223 8.42064L58.7519 8.41472L65.0822 6.78626C68.7418 5.84471 72.431 5.80325 75.913 6.53162Z" fill="#724F9D"/>
<path d="M80.0344 48.475L78.702 52.9104C78.1691 53.0939 77.6243 53.2538 77.0676 53.3959L60.6527 57.6181L60.5165 57.6536L61.4284 54.6158H61.4343C61.4817 54.6099 61.5232 54.598 61.5646 54.5921C70.7077 53.0406 77.3341 49.8666 80.0344 48.475Z" fill="#DFAA22"/>
<path d="M90.0244 15.2898L89.148 18.1855V18.1915L80.0345 48.475C77.3342 49.8666 70.7078 53.0406 61.5647 54.5921C61.5233 54.598 61.4818 54.6099 61.4344 54.6158L75.913 6.53163C75.9544 6.53755 75.99 6.5494 76.0314 6.55532C80.8102 7.57977 85.1923 10.0432 88.544 13.5785C89.0651 14.1232 89.5566 14.6917 90.0244 15.2898Z" fill="#F2BB2E"/>
</svg>
