<svg width="155" height="172" viewBox="0 0 155 172" fill="none" xmlns="http://www.w3.org/2000/svg">
<ellipse cx="77.4785" cy="162.064" rx="39.745" ry="9.93626" fill="#EEEEEE"/>
<path d="M93.1086 102.856C101.58 97.0341 107.215 90.9428 110.743 86.5144C117.239 78.3574 118.149 73.8572 117.825 70.4121C117.685 68.9166 117.361 65.9495 114.956 63.9521C111.94 61.4459 107.887 62.3268 107.246 62.477C106.854 63.9999 106.458 65.5261 106.066 67.0489C106.414 66.8133 108.222 65.6251 110.218 66.2295C111.794 66.7075 112.595 68.0323 112.742 68.2781C115.055 72.109 110.914 78.7398 108.901 81.963C107.789 83.7453 106.042 86.2207 103.432 88.8532C99.9931 93.5173 96.5509 98.1847 93.1086 102.856Z" fill="#FED753"/>
<path d="M45.4597 69.1146C45.023 69.0292 41.6934 68.4317 39.9705 70.395C38.5581 72.0066 39.0596 74.3898 39.4417 76.0834C40.9974 82.9838 46.896 88.1498 50.2222 90.656C51.3651 92.2471 52.6444 93.8928 54.0739 95.5693C56.9873 98.9837 59.9281 101.804 62.6607 104.116C60.9072 103.149 58.2121 101.585 55.07 99.4378C47.1757 94.0328 38.4251 88.044 35.7641 78.3061C35.0818 75.8136 33.9594 71.6959 36.2895 68.4385C38.8822 64.8159 43.962 64.7442 44.8593 64.7442C45.0571 66.2021 45.2584 67.6566 45.4597 69.1146Z" fill="#CF9834"/>
<path d="M44.2076 58.9227C45.2925 57.3623 47.0119 55.1805 49.5297 53.0499C59.1877 44.8622 71.3056 45.2071 78.6813 45.4188C85.269 45.6065 93.791 45.9582 101.9 51.691C104.735 53.6952 106.745 55.8087 108.031 57.3316C107.219 66.0656 106.404 74.7962 105.592 83.5302C103.647 88.983 99.27 98.5364 89.6392 105.751C87.1147 107.643 84.6106 109.087 82.2839 110.2C81.0523 110.63 79.1965 111.108 76.9244 111.06C75.5802 111.033 74.4203 110.825 73.4992 110.589C69.7738 108.92 64.6155 106.103 59.4163 101.422C54.8755 97.3346 51.7915 93.1656 49.7719 89.9527C48.9736 86.9377 48.2196 83.7999 47.5271 80.5392C45.8964 72.8739 44.8524 65.6319 44.2076 58.9227Z" fill="#F2BB2E"/>
<path d="M81.0388 65.1095C79.0089 61.48 76.979 57.8471 74.9492 54.2176C73.5197 57.929 72.0869 61.6405 70.6574 65.3519C66.5465 66.8645 62.4356 68.3771 58.3247 69.8931C61.6134 71.8632 64.9022 73.8298 68.1943 75.8C67.8975 80.1021 67.5973 84.4042 67.3005 88.7064C70.596 86.1114 73.8916 83.5165 77.1871 80.9215C81.165 83.315 85.1395 85.7085 89.1173 88.102C87.8175 83.595 86.5211 79.0846 85.2213 74.5776C88.1177 71.969 91.0141 69.3604 93.9071 66.7518C89.6188 66.2055 85.3305 65.6592 81.0388 65.1095Z" fill="#CF9834"/>
<path d="M81.4071 65.6866C79.5614 62.3848 77.7158 59.0865 75.8701 55.7848C74.5703 59.1582 73.2705 62.5351 71.9707 65.9085C68.2351 67.2845 64.496 68.6605 60.7604 70.0365C63.7523 71.8256 66.7408 73.6148 69.7327 75.4073C69.4632 79.3202 69.1903 83.2297 68.9208 87.1426C71.9161 84.7832 74.9149 82.4239 77.9102 80.068C81.5265 82.2429 85.1393 84.4213 88.7555 86.5963C87.5751 82.499 86.3947 78.4017 85.2143 74.3011C87.848 71.9315 90.4784 69.5585 93.1121 67.1889C89.2058 66.6836 85.3064 66.1851 81.4071 65.6866Z" fill="#FED753"/>
<path d="M82.284 110.197C81.1514 110.572 79.5275 110.972 77.5488 111.013C75.918 111.047 74.533 110.828 73.4958 110.582C73.9155 111.095 74.5261 111.921 75.0686 113.041C75.5291 113.987 77.0507 117.111 76.0784 120.761C75.8873 121.481 75.495 122.615 74.6183 123.864C74.7684 124.049 76.1091 125.63 78.3368 125.554C80.6089 125.479 81.8507 123.748 81.9804 123.564C80.9637 122.598 80.5543 121.686 80.3667 121.044C79.2716 117.312 80.4656 113.809 81.0422 112.474C81.4857 111.446 81.9701 110.668 82.284 110.197Z" fill="#FED753"/>
<path d="M65.7345 140.038C68.6957 134.65 71.6569 129.259 74.6182 123.871C75.0583 124.168 76.5082 125.063 78.5244 124.923C80.3257 124.797 81.547 123.916 81.9803 123.571C85.3304 128.959 88.6771 134.35 92.0273 139.738C89.3219 140.783 85.3645 141.954 80.4792 142.213C74.0143 142.555 68.8356 141.148 65.7345 140.038Z" fill="#F2BB2E"/>
<path d="M62.2957 143.115C62.3332 142.674 62.4696 141.834 63.0496 141.011C64.1311 139.482 65.8778 139.25 66.1882 139.215C68.9311 140.165 72.967 141.213 77.924 141.312C83.8191 141.428 88.5543 140.151 91.519 139.093C91.8021 139.11 93.2145 139.215 94.2994 140.407C95.2682 141.476 95.3399 142.708 95.3467 143.033C91.5428 144.269 85.9001 145.635 78.9747 145.669C71.9026 145.706 66.1439 144.344 62.2957 143.115Z" fill="#FED753"/>
<path d="M62.6572 143.098C62.2854 143.098 61.4973 143.149 60.7024 143.644C59.3515 144.491 59.0683 145.945 59.0205 146.201C58.9591 149.981 58.8977 153.764 58.8397 157.544C62.3229 159.357 69.3985 162.444 78.8246 162.508C88.7726 162.577 96.2064 159.241 99.6998 157.39C99.6418 154.037 99.5804 150.681 99.5224 147.328C99.5019 146.932 99.3825 145.542 98.2806 144.392C96.7352 142.777 94.5825 143.009 94.3369 143.04C90.7957 144.245 85.501 145.597 78.9747 145.672C71.981 145.751 66.3247 144.33 62.6572 143.098Z" fill="#F2BB2E"/>
<path d="M104.538 43.1652C105.067 43.1652 105.496 42.7357 105.496 42.2058C105.496 41.6759 105.067 41.2463 104.538 41.2463C104.008 41.2463 103.579 41.6759 103.579 42.2058C103.579 42.7357 104.008 43.1652 104.538 43.1652Z" fill="#724F9D"/>
<path d="M142.73 51.3051C143.259 51.3051 143.689 50.8756 143.689 50.3457C143.689 49.8158 143.259 49.3863 142.73 49.3863C142.2 49.3863 141.771 49.8158 141.771 50.3457C141.771 50.8756 142.2 51.3051 142.73 51.3051Z" fill="#724F9D"/>
<path d="M92.9757 116.844C93.6578 116.844 94.2107 116.291 94.2107 115.608C94.2107 114.926 93.6578 114.372 92.9757 114.372C92.2936 114.372 91.7407 114.926 91.7407 115.608C91.7407 116.291 92.2936 116.844 92.9757 116.844Z" fill="#724F9D"/>
<path d="M130.561 96.3853C131.243 96.3853 131.796 95.832 131.796 95.1493C131.796 94.4667 131.243 93.9133 130.561 93.9133C129.879 93.9133 129.326 94.4667 129.326 95.1493C129.326 95.832 129.879 96.3853 130.561 96.3853Z" fill="#724F9D"/>
<path d="M152.583 27.9744C153.265 27.9744 153.818 27.421 153.818 26.7384C153.818 26.0557 153.265 25.5023 152.583 25.5023C151.901 25.5023 151.348 26.0557 151.348 26.7384C151.348 27.421 151.901 27.9744 152.583 27.9744Z" fill="#724F9D"/>
<path d="M15.2196 59.1958C15.7491 59.1958 16.1783 58.7662 16.1783 58.2364C16.1783 57.7065 15.7491 57.2769 15.2196 57.2769C14.6902 57.2769 14.261 57.7065 14.261 58.2364C14.261 58.7662 14.6902 59.1958 15.2196 59.1958Z" fill="#724F9D"/>
<path d="M42.8465 52.2851C43.3759 52.2851 43.8051 51.8555 43.8051 51.3256C43.8051 50.7957 43.3759 50.3662 42.8465 50.3662C42.317 50.3662 41.8878 50.7957 41.8878 51.3256C41.8878 51.8555 42.317 52.2851 42.8465 52.2851Z" fill="#C92432"/>
<path d="M18.713 94.4699C19.2425 94.4699 19.6717 94.0403 19.6717 93.5104C19.6717 92.9805 19.2425 92.551 18.713 92.551C18.1836 92.551 17.7544 92.9805 17.7544 93.5104C17.7544 94.0403 18.1836 94.4699 18.713 94.4699Z" fill="#C92432"/>
<path d="M28.0541 68.6912C28.5835 68.6912 29.0127 68.2617 29.0127 67.7318C29.0127 67.2019 28.5835 66.7723 28.0541 66.7723C27.5247 66.7723 27.0955 67.2019 27.0955 67.7318C27.0955 68.2617 27.5247 68.6912 28.0541 68.6912Z" fill="#C92432"/>
<path d="M35.533 22.0523C36.0624 22.0523 36.4916 21.6228 36.4916 21.0929C36.4916 20.563 36.0624 20.1334 35.533 20.1334C35.0035 20.1334 34.5743 20.563 34.5743 21.0929C34.5743 21.6228 35.0035 22.0523 35.533 22.0523Z" fill="#C92432"/>
<path d="M65.7346 31.4743C66.2641 31.4743 66.6933 31.0448 66.6933 30.5149C66.6933 29.985 66.2641 29.5555 65.7346 29.5555C65.2052 29.5555 64.776 29.985 64.776 30.5149C64.776 31.0448 65.2052 31.4743 65.7346 31.4743Z" fill="#C92432"/>
<path d="M126.812 77.1111C127.858 76.6774 128.355 75.4769 127.921 74.4299C127.488 73.3828 126.288 72.8856 125.242 73.3193C124.196 73.753 123.699 74.9534 124.133 76.0005C124.566 77.0476 125.765 77.5448 126.812 77.1111Z" fill="#AE1F2B"/>
<path d="M28.8693 107.486C29.4345 107.486 29.8928 107.027 29.8928 106.461C29.8928 105.896 29.4345 105.437 28.8693 105.437C28.304 105.437 27.8458 105.896 27.8458 106.461C27.8458 107.027 28.304 107.486 28.8693 107.486Z" fill="#AE1F2B"/>
<path d="M51.8701 121.024C52.4354 121.024 52.8936 120.565 52.8936 119.999C52.8936 119.434 52.4354 118.975 51.8701 118.975C51.3049 118.975 50.8467 119.434 50.8467 119.999C50.8467 120.565 51.3049 121.024 51.8701 121.024Z" fill="#AE1F2B"/>
<path d="M1.42349 99.4549C1.98873 99.4549 2.44695 98.9963 2.44695 98.4306C2.44695 97.8649 1.98873 97.4062 1.42349 97.4062C0.858245 97.4062 0.400024 97.8649 0.400024 98.4306C0.400024 98.9963 0.858245 99.4549 1.42349 99.4549Z" fill="#AE1F2B"/>
<path d="M127.047 110.582C127.612 110.582 128.07 110.124 128.07 109.558C128.07 108.992 127.612 108.534 127.047 108.534C126.482 108.534 126.023 108.992 126.023 109.558C126.023 110.124 126.482 110.582 127.047 110.582Z" fill="#AE1F2B"/>
<path d="M80.2951 37.948C80.8603 37.948 81.3185 37.4894 81.3185 36.9237C81.3185 36.358 80.8603 35.8994 80.2951 35.8994C79.7298 35.8994 79.2716 36.358 79.2716 36.9237C79.2716 37.4894 79.7298 37.948 80.2951 37.948Z" fill="#AE1F2B"/>
<path d="M120.265 55.1771C120.794 55.1771 121.223 54.7475 121.223 54.2176C121.223 53.6877 120.794 53.2582 120.265 53.2582C119.735 53.2582 119.306 53.6877 119.306 54.2176C119.306 54.7475 119.735 55.1771 120.265 55.1771Z" fill="#FED753"/>
<path d="M141.774 76.1756C142.304 76.1756 142.733 75.746 142.733 75.2161C142.733 74.6862 142.304 74.2567 141.774 74.2567C141.245 74.2567 140.816 74.6862 140.816 75.2161C140.816 75.746 141.245 76.1756 141.774 76.1756Z" fill="#FED753"/>
<path d="M92.0274 37.8832C92.5568 37.8832 92.986 37.4536 92.986 36.9237C92.986 36.3939 92.5568 35.9643 92.0274 35.9643C91.4979 35.9643 91.0687 36.3939 91.0687 36.9237C91.0687 37.4536 91.4979 37.8832 92.0274 37.8832Z" fill="#FED753"/>
<path d="M21.0978 86.7124C21.6272 86.7124 22.0564 86.2828 22.0564 85.7529C22.0564 85.223 21.6272 84.7935 21.0978 84.7935C20.5684 84.7935 20.1392 85.223 20.1392 85.7529C20.1392 86.2828 20.5684 86.7124 21.0978 86.7124Z" fill="#FED753"/>
<path d="M42.8465 102.053C43.3759 102.053 43.8051 101.624 43.8051 101.094C43.8051 100.564 43.3759 100.134 42.8465 100.134C42.317 100.134 41.8878 100.564 41.8878 101.094C41.8878 101.624 42.317 102.053 42.8465 102.053Z" fill="#FED753"/>
<path d="M33.6907 52.1347C34.6777 51.7256 35.1464 50.5931 34.7375 49.6052C34.3287 48.6174 33.1971 48.1483 32.2101 48.5575C31.2231 48.9667 30.7544 50.0992 31.1632 51.087C31.5721 52.0748 32.7037 52.5439 33.6907 52.1347Z" fill="#FED753"/>
<path d="M84.96 28.4783C85.947 28.0691 86.4157 26.9366 86.0068 25.9487C85.598 24.9609 84.4664 24.4918 83.4794 24.901C82.4924 25.3102 82.0237 26.4427 82.4325 27.4305C82.8414 28.4183 83.9729 28.8874 84.96 28.4783Z" fill="#FED753"/>
<path d="M50.5934 4.31816C51.5804 3.90897 52.0491 2.77647 51.6402 1.78863C51.2314 0.800797 50.0998 0.331706 49.1128 0.74089C48.1258 1.15007 47.6571 2.28258 48.066 3.27041C48.4748 4.25825 49.6064 4.72734 50.5934 4.31816Z" fill="#FED753"/>
<path opacity="0.65" d="M44.2076 58.9227C45.081 57.6559 46.2341 56.1946 47.7284 54.7025C49.1578 53.2787 50.5599 52.169 51.7813 51.3222C50.7135 56.6794 49.6593 65.4749 51.7847 75.9024C52.3101 78.4905 53.3676 83.5199 56.1412 89.1332C62.0091 101.015 71.7252 107.731 77.5487 111.009C76.4536 110.92 75.3619 110.832 74.2668 110.743C71.326 109.541 67.9145 107.834 64.3767 105.382C56.9634 100.24 52.3885 94.1592 49.765 89.9458C48.5949 85.5822 47.5032 80.8601 46.5616 75.8102C45.446 69.8077 44.6955 64.1501 44.2076 58.9227Z" fill="#E1A832"/>
<path opacity="0.31" d="M73.4957 110.586C74.8467 110.729 76.1977 110.873 77.5486 111.016C77.7431 113.392 77.7874 116.042 77.5486 118.91C76.7606 128.399 73.274 135.781 70.4867 140.428C70.1354 140.407 69.1085 140.387 68.1396 141.069C66.5942 142.159 66.5839 144.06 66.5873 144.241C66.2223 144.276 65.0283 144.429 64.0287 145.409C62.705 146.707 62.7732 148.41 62.7903 148.68C62.5515 152.142 62.3161 155.605 62.0773 159.067C60.9992 158.561 59.9212 158.056 58.8397 157.547C58.9011 153.768 58.9625 149.984 59.0205 146.205C59.0649 145.949 59.3515 144.491 60.7024 143.647C61.4973 143.149 62.2854 143.098 62.6572 143.101C62.6436 142.872 62.589 141.397 63.7421 140.26C64.7178 139.301 65.9016 139.226 66.1882 139.215C68.9993 134.101 71.807 128.986 74.6181 123.871C75.0753 123.226 75.703 122.178 76.0783 120.768C76.8493 117.869 76.0203 115.431 75.6382 114.352C75.3175 113.433 74.7 112.04 73.4957 110.586Z" fill="#E1A832"/>
<path d="M35.6959 93.5207C36.3031 93.4251 37.0639 93.9611 37.1969 94.5723C37.3982 95.4771 36.2008 96.3956 35.2455 96.679C33.915 97.0716 32.7551 96.3205 32.5538 96.1839C32.9189 96.0098 33.4818 95.7025 34.0447 95.1767C34.9624 94.3094 35.0784 93.6197 35.6959 93.5207Z" fill="#724F9D"/>
<path d="M152.664 95.163C153.272 95.0674 154.032 95.6034 154.165 96.2146C154.367 97.1194 153.169 98.0379 152.214 98.3213C150.883 98.7139 149.723 97.9628 149.522 97.8262C149.887 97.652 150.45 97.3448 151.013 96.8189C151.934 95.9517 152.05 95.2586 152.664 95.163Z" fill="#724F9D"/>
<path d="M113.06 97.8228C113.667 97.7272 114.428 98.2633 114.561 98.8744C114.762 99.7793 113.565 100.698 112.609 100.981C111.279 101.374 110.119 100.623 109.918 100.486C110.283 100.312 110.846 100.005 111.408 99.4788C112.33 98.6115 112.442 97.9218 113.06 97.8228Z" fill="#CF9834"/>
<path d="M112.555 113.785C112.746 114.509 112.186 115.492 111.466 115.731C110.395 116.083 109.143 114.745 108.686 113.621C108.048 112.057 108.819 110.562 108.959 110.302C109.211 110.722 109.655 111.368 110.358 111.982C111.511 112.996 112.36 113.051 112.555 113.785Z" fill="#FED753"/>
<path d="M123.407 39.8942C124.014 39.7986 124.775 40.3347 124.908 40.9459C125.109 41.8507 123.912 42.7691 122.956 43.0525C121.626 43.4452 120.466 42.694 120.265 42.5574C120.63 42.3833 121.193 42.076 121.755 41.5502C122.677 40.6829 122.789 39.9898 123.407 39.8942Z" fill="#724F9D"/>
<path d="M82.6811 4.03781C83.2883 3.94221 84.0491 4.47826 84.1822 5.08944C84.3835 5.99425 83.186 6.91273 82.2308 7.19612C80.9003 7.58878 79.7403 6.83761 79.5391 6.70103C79.9041 6.5269 80.467 6.2196 81.0299 5.69379C81.951 4.82653 82.0636 4.13341 82.6811 4.03781Z" fill="#724F9D"/>
<path d="M60.7708 39.6177C61.3781 39.5221 62.1388 40.0581 62.2719 40.6693C62.4732 41.5741 61.2757 42.4926 60.3205 42.776C58.99 43.1686 57.8301 42.4175 57.6288 42.2809C57.9938 42.1068 58.5567 41.7995 59.1196 41.2737C60.0407 40.4064 60.1533 39.7133 60.7708 39.6177Z" fill="#724F9D"/>
<path d="M66.4374 118.056C66.5568 118.661 66.0519 119.439 65.4481 119.6C64.5508 119.835 63.5888 118.674 63.2681 117.732C62.8212 116.414 63.5274 115.226 63.6536 115.021C63.8412 115.38 64.1722 115.929 64.7214 116.469C65.6187 117.357 66.3146 117.445 66.4374 118.056Z" fill="#FED753"/>
<path d="M109.819 32.7821C110.081 33.3386 109.781 34.2195 109.232 34.52C108.42 34.9673 107.202 34.0761 106.663 33.2396C105.909 32.0719 106.305 30.7471 106.38 30.5149C106.649 30.8188 107.103 31.2695 107.765 31.6622C108.856 32.3006 109.552 32.2153 109.819 32.7821Z" fill="#F2BB2E"/>
<path d="M132.314 62.4088C132.577 62.9653 132.277 63.8462 131.728 64.1467C130.916 64.594 129.698 63.7028 129.159 62.8663C128.405 61.6986 128.8 60.3738 128.876 60.1416C129.145 60.4455 129.599 60.8962 130.261 61.2888C131.352 61.9307 132.048 61.8454 132.314 62.4088Z" fill="#F2BB2E"/>
<path d="M15.5677 69.8555C14.9673 69.159 15.1071 68.302 14.4351 67.9025C13.8176 67.5372 12.9783 67.8308 12.4222 68.0903C12.4871 68.7322 12.6986 69.9443 13.5549 71.112C14.0768 71.8256 15.1344 73.2631 16.5127 73.0651C17.5225 72.9183 18.372 71.9417 18.7165 70.6716C16.8027 70.8218 15.9737 70.3233 15.5677 69.8555Z" fill="#C92432"/>
<path d="M9.53302 28.2978C8.93259 27.6013 9.07246 26.7443 8.40038 26.3448C7.78289 25.9795 6.94366 26.2731 6.38757 26.5326C6.45239 27.1745 6.66391 28.3866 7.52021 29.5543C8.04217 30.2679 9.09975 31.7054 10.478 31.5074C11.4878 31.3605 12.3373 30.384 12.6819 29.1139C10.768 29.2641 9.93899 28.7656 9.53302 28.2978Z" fill="#C92432"/>
<path d="M141.989 62.9414C141.508 63.0951 141.106 62.8424 140.761 63.0951C140.444 63.3273 140.413 63.8155 140.427 64.1536C140.765 64.2594 141.423 64.413 142.197 64.2287C142.668 64.116 143.624 63.8906 143.818 63.1497C143.961 62.6068 143.651 61.9683 143.081 61.5245C142.743 62.5249 142.313 62.839 141.989 62.9414Z" fill="#C92432"/>
<path d="M105.496 124.295C104.776 123.461 104.947 122.441 104.145 121.963C103.408 121.526 102.405 121.874 101.74 122.188C101.815 122.953 102.067 124.4 103.091 125.797C103.715 126.647 104.977 128.368 106.622 128.129C107.826 127.955 108.843 126.787 109.252 125.271C106.966 125.449 105.977 124.855 105.496 124.295Z" fill="#C92432"/>
<path d="M30.0702 121.662C29.4663 121.816 28.9887 121.471 28.5452 121.761C28.1392 122.024 28.0608 122.622 28.0505 123.041C28.4599 123.195 29.2582 123.434 30.2237 123.267C30.8139 123.164 32.0045 122.96 32.2979 122.062C32.5128 121.406 32.1785 120.593 31.5133 120.003C31.0288 121.205 30.4761 121.556 30.0702 121.662Z" fill="#FED753"/>
<path d="M40.4579 143.489C40.6338 144.086 40.3068 144.576 40.6132 145.009C40.8909 145.405 41.4909 145.461 41.911 145.456C42.0494 145.041 42.2588 144.235 42.0559 143.276C41.9318 142.69 41.6831 141.508 40.7748 141.248C40.1118 141.057 39.3121 141.421 38.7464 142.108C39.9653 142.548 40.3372 143.087 40.4579 143.489Z" fill="#FED753"/>
<path d="M42.8567 36.6813C42.0447 36.6813 41.5569 36.0941 40.9019 36.3126C40.3048 36.514 40.0149 37.2447 39.8682 37.7671C40.3321 38.0949 41.2635 38.6514 42.536 38.7539C43.3138 38.8153 44.8797 38.9382 45.5416 37.9037C46.026 37.1457 45.8657 36.0121 45.2141 35.0527C44.2111 36.415 43.4025 36.6813 42.8567 36.6813Z" fill="#FED753"/>
<path d="M117.426 11.0243C116.614 11.0243 116.126 10.437 115.471 10.6555C114.874 10.857 114.584 11.5876 114.437 12.11C114.901 12.4378 115.832 12.9944 117.105 13.0968C117.883 13.1583 119.449 13.2812 120.11 12.2466C120.595 11.4886 120.435 10.355 119.783 9.3956C118.78 10.7579 117.971 11.0243 117.426 11.0243Z" fill="#FED753"/>
</svg>
