<svg width="125" height="191" viewBox="0 0 125 191" fill="none" xmlns="http://www.w3.org/2000/svg">
<ellipse cx="63.9458" cy="175.242" rx="59.6715" ry="14.9179" fill="#EEEEEE"/>
<path d="M87.4123 86.3489C100.13 77.6087 108.592 68.4635 113.888 61.8148C123.64 49.5682 125.007 42.8119 124.521 37.6395C124.311 35.3942 123.824 30.9395 120.213 27.9407C115.685 24.178 109.601 25.5006 108.638 25.7262C108.049 28.0125 107.455 30.3039 106.865 32.5902C107.388 32.2365 110.103 30.4525 113.099 31.3599C115.465 32.0776 116.669 34.0665 116.889 34.4356C120.362 40.1872 114.144 50.1424 111.122 54.9815C109.452 57.6574 106.83 61.3739 102.911 65.3262C97.7484 72.3287 92.5803 79.3362 87.4123 86.3489Z" fill="#FED753"/>
<path d="M15.8742 35.6915C15.2186 35.5634 10.2196 34.6663 7.63299 37.6139C5.5125 40.0335 6.26543 43.6116 6.83909 46.1542C9.1747 56.5143 18.0306 64.2702 23.0245 68.0329C24.7403 70.4217 26.661 72.8925 28.8071 75.4095C33.1813 80.5357 37.5964 84.77 41.6991 88.2405C39.0664 86.7897 35.0201 84.4419 30.3028 81.2175C18.4506 73.1027 5.31275 64.1113 1.31762 49.4913C0.293232 45.7492 -1.39189 39.567 2.1064 34.6765C5.99908 29.2376 13.6257 29.13 14.9728 29.13C15.2698 31.3189 15.572 33.5026 15.8742 35.6915Z" fill="#CF9834"/>
<path d="M13.9943 20.3898C15.623 18.0471 18.2045 14.7714 21.9845 11.5727C36.4848 -0.720034 54.6779 -0.202286 65.7516 0.11554C75.6421 0.397483 88.4367 0.925482 100.612 9.53241C104.868 12.5415 107.885 15.7146 109.816 18.0009C108.597 31.1138 107.373 44.2216 106.154 57.3345C103.234 65.521 96.6626 79.8642 82.2033 90.6959C78.4131 93.5359 74.6536 95.7042 71.1604 97.3754C69.3114 98.0213 66.525 98.739 63.1138 98.6672C61.0957 98.6262 59.3543 98.3135 57.9714 97.9598C52.3782 95.4531 44.6338 91.2239 36.8279 84.1959C30.0106 78.0598 25.3804 71.8007 22.3482 66.9769C21.1496 62.4504 20.0177 57.7394 18.9779 52.8439C16.5296 41.3355 14.9623 30.4628 13.9943 20.3898Z" fill="#F2BB2E"/>
<path d="M69.291 29.6784C66.2434 24.2292 63.1959 18.7749 60.1483 13.3257C58.0022 18.898 55.851 24.4702 53.7049 30.0424C47.5329 32.3133 41.361 34.5842 35.189 36.8602C40.1266 39.8181 45.0642 42.7708 50.0068 45.7286C49.5612 52.1877 49.1105 58.6467 48.6649 65.1057C53.6127 61.2098 58.5605 57.3139 63.5083 53.4179C69.4805 57.0114 75.4476 60.6049 81.4198 64.1984C79.4683 57.4318 77.522 50.66 75.5705 43.8934C79.919 39.977 84.2676 36.0606 88.611 32.1441C82.1727 31.3239 75.7344 30.5037 69.291 29.6784Z" fill="#CF9834"/>
<path d="M69.8441 30.5448C67.0732 25.5877 64.3022 20.6358 61.5312 15.6787C59.5797 20.7435 57.6283 25.8133 55.6768 30.878C50.0683 32.9439 44.4546 35.0097 38.8461 37.0756C43.338 39.7617 47.8249 42.4479 52.3168 45.1392C51.9122 51.0138 51.5024 56.8833 51.0978 62.758C55.5949 59.2158 60.0971 55.6735 64.5941 52.1365C70.0234 55.4019 75.4475 58.6724 80.8768 61.9378C79.1046 55.7863 77.3324 49.6349 75.5602 43.4783C79.5144 39.9207 83.4634 36.3579 87.4176 32.8003C81.5529 32.0417 75.6985 31.2932 69.8441 30.5448Z" fill="#FED753"/>
<path d="M71.1605 97.3702C69.46 97.9341 67.022 98.5339 64.0513 98.5954C61.603 98.6467 59.5234 98.3186 57.9664 97.9495C58.5964 98.7184 59.5132 99.959 60.3276 101.64C61.0191 103.06 63.3034 107.751 61.8437 113.231C61.5569 114.312 60.9678 116.014 59.6515 117.89C59.8769 118.167 61.8898 120.541 65.2344 120.428C68.6456 120.315 70.51 117.716 70.7047 117.439C69.1783 115.989 68.5637 114.62 68.282 113.656C66.6378 108.053 68.4305 102.794 69.2961 100.789C69.962 99.2464 70.6893 98.0776 71.1605 97.3702Z" fill="#FED753"/>
<path d="M46.3138 142.173C50.7597 134.084 55.2056 125.99 59.6514 117.901C60.3121 118.347 62.489 119.69 65.516 119.48C68.2204 119.29 70.0541 117.967 70.7046 117.45C75.7343 125.539 80.759 133.633 85.7887 141.722C81.727 143.291 75.7856 145.049 68.4509 145.439C58.7448 145.952 50.9697 143.84 46.3138 142.173Z" fill="#F2BB2E"/>
<path d="M41.1509 146.792C41.2072 146.131 41.4121 144.87 42.2828 143.634C43.9065 141.338 46.5289 140.989 46.995 140.938C51.1131 142.363 57.1724 143.937 64.6145 144.086C73.4653 144.26 80.5745 142.343 85.0255 140.754C85.4506 140.779 87.5711 140.938 89.1999 142.727C90.6545 144.332 90.7621 146.182 90.7724 146.669C85.0614 148.525 76.5897 150.575 66.1921 150.627C55.5743 150.683 46.9284 148.638 41.1509 146.792Z" fill="#FED753"/>
<path d="M41.6938 146.767C41.1355 146.767 39.9523 146.843 38.7589 147.587C36.7306 148.858 36.3055 151.042 36.2338 151.426C36.1416 157.101 36.0494 162.781 35.9623 168.456C41.1919 171.178 51.8148 175.812 65.9667 175.909C80.9024 176.012 92.0631 171.003 97.308 168.225C97.2209 163.191 97.1287 158.152 97.0416 153.118C97.0109 152.523 96.8316 150.437 95.1772 148.709C92.857 146.285 89.625 146.633 89.2563 146.679C83.9397 148.489 75.9904 150.519 66.1921 150.632C55.6921 150.75 47.1999 148.617 41.6938 146.767Z" fill="#F2BB2E"/>
<path opacity="0.65" d="M13.9943 20.3898C15.3055 18.4879 17.0367 16.2939 19.2801 14.0538C21.4262 11.9161 23.5313 10.2501 25.365 8.97879C23.7618 17.0218 22.1791 30.227 25.3701 45.8825C26.1589 49.7682 27.7467 57.3191 31.9109 65.7466C40.7206 83.5859 55.3079 93.6692 64.0511 98.5903C62.407 98.457 60.7679 98.3238 59.1238 98.1905C54.7087 96.386 49.5867 93.8229 44.2752 90.1423C33.1452 82.4222 26.2767 73.2924 22.3379 66.9666C20.5811 60.4153 18.9421 53.3258 17.5284 45.7441C15.8535 36.7322 14.7267 28.238 13.9943 20.3898Z" fill="#E1A832"/>
<path opacity="0.31" d="M57.9662 97.9547C59.9945 98.17 62.0228 98.3853 64.0511 98.6006C64.3431 102.168 64.4097 106.146 64.0511 110.452C62.868 124.698 57.6333 135.781 53.4487 142.758C52.9211 142.727 51.3794 142.696 49.9248 143.722C47.6045 145.357 47.5892 148.212 47.5943 148.484C47.0462 148.535 45.2536 148.766 43.7528 150.237C41.7655 152.185 41.868 154.743 41.8936 155.148C41.535 160.346 41.1816 165.544 40.8231 170.742C39.2045 169.983 37.586 169.225 35.9623 168.461C36.0545 162.786 36.1467 157.106 36.2338 151.431C36.3004 151.047 36.7306 148.858 38.7589 147.592C39.9523 146.843 41.1355 146.767 41.6938 146.772C41.6733 146.428 41.5914 144.214 43.3226 142.507C44.7875 141.066 46.5648 140.953 46.995 140.938C51.2155 133.259 55.4309 125.58 59.6514 117.901C60.3377 116.932 61.2802 115.358 61.8436 113.241C63.0011 108.889 61.7565 105.229 61.1828 103.609C60.7014 102.23 59.7743 100.138 57.9662 97.9547Z" fill="#E1A832"/>
</svg>
