<svg width="22" height="22" viewBox="0 0 22 22" fill="none" xmlns="http://www.w3.org/2000/svg">
<path d="M10.5665 0.754061C10.7588 0.419647 11.2412 0.419648 11.4335 0.754061L14.7397 6.50535C14.8106 6.62877 14.9308 6.71609 15.0701 6.74543L21.5616 8.11255C21.939 8.19204 22.0881 8.65091 21.8295 8.93708L17.3813 13.8587C17.2859 13.9643 17.24 14.1056 17.2551 14.2471L17.9609 20.8434C18.0019 21.2269 17.6116 21.5105 17.2595 21.3529L11.2042 18.6434C11.0743 18.5852 10.9257 18.5852 10.7958 18.6434L4.7405 21.3529C4.38841 21.5105 3.99807 21.2269 4.03911 20.8434L4.74487 14.2471C4.76002 14.1056 4.71411 13.9643 4.61866 13.8587L0.170524 8.93708C-0.0881161 8.65091 0.0609778 8.19204 0.43843 8.11255L6.9299 6.74543C7.0692 6.71609 7.18939 6.62877 7.26034 6.50535L10.5665 0.754061Z" fill="#F2BB2E"/>
</svg>
